PathFileType	4	(X/Y/Z)	C:/Users/opensim2020/Desktop/walking_exp_matlab/subject02_walking13_straight_04.trc																																																																																																																									
DataRate	CameraRate	NumFrames	NumMarkers	Units	OrigDataRate	OrigDataStartFrame	OrigNumFrames																																																																																																																					
100	100	7	41	mm	100	1824	118																																																																																																																					
Frame#	Time	LFHD			RFHD			LBHD			RBHD			C7			T10			CLAV			STRN			RBAK			LSHO			LUPA			LELB			LFRM			LWRA			LWRB			LFIN			RSHO			RUPA			RELB			RFRM			RWRA			RWRB			RFIN			LASI			RASI			LPSI			RPSI			LTHI			LKNE			LTIB			LANK			LHEE			LTOE			RTHI			RKNE			RTIB			RANK			RHEE			RTOE			*39			*40		
		X1	Y1	Z1	X2	Y2	Z2	X3	Y3	Z3	X4	Y4	Z4	X5	Y5	Z5	X6	Y6	Z6	X7	Y7	Z7	X8	Y8	Z8	X9	Y9	Z9	X10	Y10	Z10	X11	Y11	Z11	X12	Y12	Z12	X13	Y13	Z13	X14	Y14	Z14	X15	Y15	Z15	X16	Y16	Z16	X17	Y17	Z17	X18	Y18	Z18	X19	Y19	Z19	X20	Y20	Z20	X21	Y21	Z21	X22	Y22	Z22	X23	Y23	Z23	X24	Y24	Z24	X25	Y25	Z25	X26	Y26	Z26	X27	Y27	Z27	X28	Y28	Z28	X29	Y29	Z29	X30	Y30	Z30	X31	Y31	Z31	X32	Y32	Z32	X33	Y33	Z33	X34	Y34	Z34	X35	Y35	Z35	X36	Y36	Z36	X37	Y37	Z37	X38	Y38	Z38	X39	Y39	Z39	X40	Y40	Z40	X41	Y41	Z41
																																																																																																																												
89	0.88	340.86731	1725.06909	-1435.45557	311.11398	1697.39209	-1296.46484	203.06865	1677.12903	-1473.79858	161.99529	1650.42542	-1337.70764	115.62423	1526.00916	-1408.9762	78.1444	1242.11438	-1401.27258	254.32338	1461.02148	-1422.67188	318.33807	1294.99561	-1417.47607	66.79472	1342.75525	-1342.26941	178.65442	1501.33826	-1589.50195	157.55463	1304.06824	-1677.09241	152.02097	1163.77588	-1695.90527	165.93788	1031.26379	-1712.34338	225.66512	906.57831	-1678.78918	183.03658	908.11371	-1716.98547	203.9138	843.20172	-1714.83386	186.89003	1491.80066	-1226.90625	181.30704	1302.32568	-1137.38782	217.36069	1158.08813	-1116.06213	276.01801	1052.18066	-1102.43738	357.9057	946.49933	-1125.13	314.11157	927.59515	-1093.95313	369.73386	880.67096	-1091.50757	313.10532	999.01813	-1547.82324	320.67105	973.45575	-1295.97937	105.03074	1034.49438	-1464.45581	105.66955	1033.1604	-1348.64197	316.77795	698.0379	-1633.43262	358.42163	505.57101	-1615.94763	298.33893	322.53271	-1613.54712	301.96817	97.28008	-1596.68591	279.15677	69.55565	-1538.91504	445.60147	51.65294	-1635.67334	225.61874	664.24036	-1246.2312	196.00714	457.01627	-1296.19287	130.06465	279.85934	-1289.33862	81.9991	92.53131	-1331.49292	36.5893	40.71737	-1384.15833	230.18292	35.83731	-1329.01855	236.59883	1802.68225	-1358.04797	-2845.23755	1034.25684	3360.35889
90	0.89	353.97314	1723.24207	-1436.22131	324.28555	1695.88232	-1297.10132	216.13068	1675.4917	-1474.40662	175.03418	1649.11096	-1338.24329	128.60548	1524.43982	-1409.67688	90.64919	1240.67114	-1402.89697	267.30109	1459.19263	-1422.93677	330.90372	1293.0614	-1417.14294	79.35183	1341.20801	-1343.02881	192.5119	1499.1521	-1590.20422	169.16983	1301.44287	-1676.49402	160.47908	1161.55139	-1693.98596	168.15424	1029.15393	-1710.90076	221.75212	901.1297	-1677.12317	179.40163	905.04517	-1715.67639	196.68134	839.34656	-1713.82178	200.25294	1490.42334	-1226.86389	195.40073	1301.56128	-1136.84265	233.91649	1157.75	-1115.03247	295.46075	1053.27795	-1102.10437	380.99121	950.5188	-1125.43652	338.0238	930.0365	-1094.04089	395.02563	885.16119	-1092.15564	326.3082	996.81219	-1548.14392	331.62991	971.11932	-1295.69006	117.80305	1032.80017	-1466.89771	116.75738	1031.38501	-1351.25537	331.49554	697.16614	-1634.50391	373.65234	503.69693	-1616.62463	324.95184	316.38956	-1617.1355	343.09937	91.23734	-1603.33228	320.6564	61.81941	-1545.95386	490.24622	55.1787	-1639.02979	231.91185	663.2207	-1246.68494	200.21005	456.41458	-1296.73145	132.24825	279.88629	-1290.20715	82.32727	92.91914	-1332.04248	36.95621	40.87137	-1384.65625	230.20493	35.80825	-1328.88367	249.95172	1801.14771	-1358.87537	-2845.80566	1034.302	3357.35571
91	0.9	367.14285	1721.18127	-1437.00452	337.45624	1694.16455	-1297.88635	229.15974	1673.60962	-1475.10266	188.04446	1647.57263	-1338.87805	141.3927	1522.63489	-1410.48108	103.16898	1239.047	-1404.82458	280.32751	1457.13586	-1423.29089	343.59927	1290.88025	-1416.89941	91.78462	1339.78467	-1344.32471	206.45384	1496.84534	-1590.96375	180.67593	1298.86243	-1676.15637	169.06238	1159.33813	-1692.20947	170.89519	1027.13391	-1709.3584	217.05757	896.18726	-1675.32239	176.32489	902.71832	-1714.72778	190.27802	835.90363	-1712.55737	212.22978	1489.03687	-1228.05334	209.84543	1300.70093	-1136.76379	250.23955	1157.13196	-1114.0946	315.02521	1054.50952	-1101.77063	403.52441	954.40302	-1125.60864	361.16965	932.7041	-1094.42053	419.86841	889.77985	-1092.82703	339.9361	994.32312	-1548.9187	342.66321	968.72034	-1295.60022	130.74504	1030.6759	-1469.29651	127.91155	1029.27502	-1353.98096	345.94986	695.57391	-1635.24939	388.37894	501.45828	-1617.3313	351.39938	310.77887	-1621.03174	384.08124	86.72509	-1610.08118	361.73587	55.67604	-1554.26318	534.14673	60.55121	-1642.19214	238.33096	662.25427	-1247.31067	204.01804	455.52988	-1297.67175	134.32205	279.98526	-1290.67261	82.772	93.36343	-1332.65186	37.23153	41.37418	-1385.396	230.13722	35.74089	-1328.80054	263.25696	1799.40942	-1359.78369	-2845.96777	1034.29395	3357.44678
92	0.91	380.29938	1718.93262	-1437.77039	350.69635	1692.2135	-1298.5896	242.25177	1671.55029	-1475.82568	201.23375	1645.76855	-1339.45239	154.37999	1520.61646	-1411.29224	115.83524	1237.16699	-1406.99219	293.37488	1454.9657	-1423.69543	356.44022	1288.63257	-1416.8125	104.66531	1337.71252	-1345.57935	220.41971	1494.42896	-1591.83337	191.91743	1296.3833	-1676.17725	177.73463	1157.18103	-1690.50256	174.09499	1025.49756	-1708.10632	213.86293	892.14026	-1674.03052	173.99237	900.86353	-1714.01245	184.17876	833.63721	-1712.073	224.8028	1487.27637	-1228.8656	223.03726	1299.23657	-1137.06311	266.39951	1156.4458	-1113.28625	334.57175	1055.7467	-1101.25	425.71722	958.77667	-1126.10339	384.19162	935.38831	-1094.70618	444.25528	894.34113	-1093.39978	353.60468	991.57092	-1549.94873	353.84326	966.4104	-1295.68201	143.69547	1028.2478	-1471.70776	139.1812	1026.93787	-1356.81885	360.07053	693.34479	-1635.96558	402.74695	498.96771	-1618.15344	377.1897	306.33487	-1625.18274	423.91522	84.26151	-1617.08069	402.59882	50.34251	-1561.95959	576.64905	67.53442	-1644.96387	245.142	661.14362	-1248.06433	208.54762	454.68512	-1298.56506	136.64024	280.06485	-1291.58191	83.26478	93.85432	-1333.31982	37.50564	41.86995	-1386.24658	230.06679	35.52966	-1328.68872	276.56009	1797.4718	-1360.72998	-2845.71729	1034.31311	3357.38184
93	0.92	393.79639	1716.53601	-1438.41138	363.84229	1690.04187	-1299.30786	255.61124	1669.19092	-1476.19666	214.25114	1643.77588	-1340.23328	167.40483	1518.46436	-1412.27771	128.53131	1235.03638	-1409.30139	306.50366	1452.5675	-1424.22278	369.30811	1286.23315	-1416.84961	117.32172	1335.57788	-1347.25452	234.34476	1491.92407	-1592.76306	203.29205	1293.83252	-1676.05371	186.56097	1155.10486	-1688.98865	177.99847	1023.98627	-1706.77063	212.3369	889.42554	-1673.73853	172.46359	899.58881	-1713.64478	178.88429	831.73761	-1711.36951	237.35777	1485.40869	-1229.81348	238.18764	1297.78589	-1136.68774	282.10474	1155.54883	-1112.63977	353.0925	1056.77771	-1101.23413	447.23843	962.80908	-1126.40942	406.74753	938.0661	-1095.03796	468.15747	899.14679	-1094.04736	367.37106	988.51892	-1551.06274	365.16852	964.20428	-1295.87903	156.71715	1025.56921	-1474.14209	150.62393	1024.36365	-1359.65955	373.77997	690.46692	-1636.50269	416.88257	496.21194	-1619.19373	402.44019	302.64041	-1629.11963	462.84589	83.11241	-1623.35266	442.05344	47.19078	-1569.3717	617.35394	75.75401	-1647.33655	252.42802	659.95306	-1248.80334	213.47093	453.66586	-1299.1908	139.01236	280.31555	-1292.49487	83.75658	94.43752	-1334.04724	37.90536	42.86315	-1387.08704	230.09258	35.47494	-1328.53589	289.86319	1795.36047	-1361.63159	-2845.87622	1034.28662	3357.14526
94	0.93	406.74976	1714.06335	-1439.36414	377.06543	1687.68481	-1300.06055	268.78766	1666.89209	-1477.02966	227.34167	1641.59229	-1341.00403	180.6151	1516.12195	-1413.39856	141.43927	1232.79431	-1411.64673	319.67365	1450.12268	-1424.90649	382.2641	1283.78076	-1417.08728	130.46002	1332.995	-1348.7334	248.21747	1489.37341	-1593.83069	214.61317	1291.22009	-1676.02588	195.51965	1153.15649	-1687.68213	182.25677	1022.9054	-1706.01685	210.625	886.62451	-1673.33484	171.77214	898.82922	-1713.56531	174.43814	830.5285	-1710.87256	250.22	1483.23181	-1230.55212	251.42174	1296.22485	-1137.4718	297.53552	1154.36462	-1112.18713	371.81232	1057.66174	-1100.88464	468.49582	966.95514	-1126.67712	428.88773	940.8139	-1095.35425	491.64505	903.96136	-1094.5498	381.20166	985.29608	-1552.09875	376.70877	962.21619	-1296.24548	169.8036	1022.66528	-1476.50061	162.24977	1021.6629	-1362.61499	386.84167	686.97919	-1636.9613	431.02536	493.25574	-1620.40613	427.15125	299.56049	-1632.95959	500.0997	83.38667	-1629.21631	479.53351	45.78849	-1576.9884	655.68427	84.6256	-1649.20654	260.18094	658.60333	-1249.47925	218.3671	453.24716	-1300.1012	141.35886	280.64417	-1293.48889	84.26256	95.25529	-1334.9679	38.42929	43.66055	-1388.65076	230.27106	35.52231	-1328.41028	303.1871	1793.08948	-1362.48682	-2845.16846	1034.15808	3360.4021
95	0.94	420.21481	1711.41479	-1439.85547	390.23322	1685.14551	-1300.77429	281.84698	1664.67969	-1478.18628	240.29576	1639.3855	-1341.9624	193.53146	1513.66833	-1414.53308	154.31068	1230.45166	-1414.14758	332.86902	1447.59937	-1425.65027	395.26266	1281.21484	-1417.51587	143.49828	1330.47656	-1350.47937	261.96143	1486.8291	-1594.97644	225.91412	1288.77917	-1676.21387	204.78185	1151.27051	-1686.54358	186.92343	1022.32336	-1705.7373	209.85193	884.57935	-1672.85645	172.18059	898.26978	-1713.5498	170.87619	829.86633	-1710.5907	262.36121	1481.02783	-1232.00085	265.37305	1294.38464	-1137.9187	312.67896	1153.05725	-1111.87329	389.50806	1058.63171	-1101.20251	489.19394	970.89758	-1126.98755	450.58517	943.45514	-1095.80994	514.36011	908.74377	-1095.08081	395.21658	982.05231	-1553.06995	388.26022	959.94666	-1296.61914	183.01205	1019.65942	-1478.91858	174.14424	1018.83905	-1365.51331	399.16141	683.11194	-1637.45911	445.35379	490.2663	-1621.7782	451.30939	297.25497	-1636.86829	535.23413	84.70029	-1634.47009	515.92474	44.96656	-1582.15076	691.46503	93.5326	-1650.2782	268.14371	657.20886	-1250.07275	223.19115	452.19089	-1300.68701	143.64882	281.08551	-1294.37036	84.80379	96.14813	-1335.86743	38.97942	44.55729	-1389.73352	230.26701	35.28313	-1328.14893	316.54346	1790.71399	-1363.30078	-2845.87354	1034.18762	3357.32275
